<svg width="14" height="18" viewBox="0 0 14 18" fill="none" xmlns="http://www.w3.org/2000/svg">
<g clip-path="url(#clip0_9_854)">
<path d="M2.33333 16.3125C2.0125 16.3125 1.75 16.0594 1.75 15.75V2.25C1.75 1.94062 2.0125 1.6875 2.33333 1.6875H8.16667V4.5C8.16667 5.12227 8.68802 5.625 9.33333 5.625H12.25V15.75C12.25 16.0594 11.9875 16.3125 11.6667 16.3125H2.33333ZM2.33333 0C1.04635 0 0 1.00898 0 2.25V15.75C0 16.991 1.04635 18 2.33333 18H11.6667C12.9536 18 14 16.991 14 15.75V5.43164C14 4.83398 13.7557 4.26094 13.3182 3.83906L10.0151 0.657422C9.5776 0.235547 8.98698 0 8.36719 0H2.33333ZM4.375 9C3.8901 9 3.5 9.37617 3.5 9.84375C3.5 10.3113 3.8901 10.6875 4.375 10.6875H9.625C10.1099 10.6875 10.5 10.3113 10.5 9.84375C10.5 9.37617 10.1099 9 9.625 9H4.375ZM4.375 12.375C3.8901 12.375 3.5 12.7512 3.5 13.2188C3.5 13.6863 3.8901 14.0625 4.375 14.0625H9.625C10.1099 14.0625 10.5 13.6863 10.5 13.2188C10.5 12.7512 10.1099 12.375 9.625 12.375H4.375Z" fill="black"/>
</g>
<defs>
<clipPath id="clip0_9_854">
<rect width="14" height="18" fill="white"/>
</clipPath>
</defs>
</svg>
