<svg width="12" height="12" viewBox="0 0 12 12" fill="none" xmlns="http://www.w3.org/2000/svg">
<path d="M1.33333 3.33333V10.6667H10.6667V3.33333H8.66667V8.66667L6 7.33333L3.33333 8.66667V3.33333H1.33333ZM1.33333 12C0.966667 12 0.652778 11.8694 0.391667 11.6083C0.130556 11.3472 0 11.0333 0 10.6667V2.35C0 2.19444 0.025 2.04444 0.075 1.9C0.125 1.75556 0.2 1.62222 0.3 1.5L1.13333 0.483333C1.25556 0.327778 1.40833 0.208333 1.59167 0.125C1.775 0.0416667 1.96667 0 2.16667 0H9.83333C10.0333 0 10.225 0.0416667 10.4083 0.125C10.5917 0.208333 10.7444 0.327778 10.8667 0.483333L11.7 1.5C11.8 1.62222 11.875 1.75556 11.925 1.9C11.975 2.04444 12 2.19444 12 2.35V10.6667C12 11.0333 11.8694 11.3472 11.6083 11.6083C11.3472 11.8694 11.0333 12 10.6667 12H1.33333ZM1.6 2H10.4L9.83333 1.33333H2.16667L1.6 2ZM4.66667 3.33333V6.5L6 5.83333L7.33333 6.5V3.33333H4.66667Z" fill="#3C3C3C"/>
</svg>
