<svg width="59" height="52" viewBox="0 0 59 52" fill="none" xmlns="http://www.w3.org/2000/svg">
<g opacity="0.5">
<path d="M34.2407 18.6679L37.3459 19.7079C37.4598 19.7495 37.5633 19.7599 37.6772 19.7599C38.1119 19.7599 38.5156 19.4791 38.6605 19.0527C38.8365 18.5119 38.5466 17.9191 38.0084 17.7319L34.9031 16.6919C34.3545 16.5047 33.7749 16.8063 33.5989 17.3471C33.4229 17.8879 33.7128 18.4807 34.251 18.6679H34.2407Z" fill="white"/>
<path d="M57.7889 39.4473C56.0604 36.8889 53.1932 35.3601 50.0982 35.3601C49.2081 35.3601 48.3489 35.4953 47.5312 35.7345C45.2851 32.2193 43.8567 27.8409 42.6042 23.4313C43.0079 23.6289 43.4219 23.7537 43.8049 23.7537C45.5956 23.7537 46.993 21.9649 46.993 19.6769C46.993 17.3889 45.5956 15.6001 43.8049 15.6001C42.1488 15.6001 39.7474 16.9001 39.7474 19.2401C39.7474 19.5209 39.7888 19.8017 39.8509 20.0721C37.967 20.9873 36.8284 22.9841 37.0354 25.1473C37.5944 30.8153 37.3977 35.7241 36.4972 39.5201H27.9577L26.4982 34.4033C25.6184 31.2937 22.7512 29.1201 19.5321 29.1201H16.1681C13.1042 29.1201 10.1853 30.2329 7.88737 32.2401H1.03509C0.465789 32.2401 0 32.7081 0 33.2801C0 33.8521 0.465789 34.3201 1.03509 34.3201H12.4211C12.9904 34.3201 13.4561 33.8521 13.4561 33.2801C13.4561 32.7081 12.9904 32.2401 12.4211 32.2401H11.6137C13.0214 31.5641 14.574 31.2001 16.1681 31.2001H19.5321C21.8404 31.2001 23.8795 32.7497 24.5109 34.9649L26.9951 43.6801H7.43193C6.70737 43.6801 6.08632 43.2537 5.78614 42.6401H7.24561C7.81491 42.6401 8.2807 42.1721 8.2807 41.6001C8.2807 41.0281 7.81491 40.5601 7.24561 40.5601H5.66193C5.81719 39.2705 6.18982 38.0433 6.80053 36.8889C7.06965 36.3793 6.87298 35.7553 6.37614 35.4849C5.86895 35.2145 5.2479 35.4121 4.97877 35.9113C4.21281 37.3673 3.75737 38.9273 3.6021 40.5601H2.08053C1.51123 40.5601 1.04544 41.0281 1.04544 41.6001C1.04544 42.1721 1.51123 42.6401 2.08053 42.6401H3.61246C3.98509 44.4185 5.55842 45.7601 7.44228 45.7601H7.75281C8.26 49.2857 11.2721 52.0001 14.9156 52.0001C18.5591 52.0001 21.5712 49.2857 22.0784 45.7601H40.917C40.9998 45.9577 41.1033 46.1553 41.3 46.2593C41.6519 46.4673 42.0867 46.4049 42.2005 46.3633L42.9975 46.0825C43.6393 49.4417 46.5789 52.0001 50.1086 52.0001C54.104 52.0001 57.3542 48.7345 57.3542 44.7201C57.3542 43.5033 57.054 42.3385 56.4951 41.2881L57.2818 41.0073C57.5819 40.9033 57.82 40.6537 57.9235 40.3521C58.027 40.0505 57.9753 39.7073 57.7993 39.4473H57.7889ZM14.9053 49.9201C12.4107 49.9201 10.3198 48.1313 9.83333 45.7601H19.9772C19.5011 48.1313 17.4102 49.9201 14.9053 49.9201ZM55.1909 39.5409L42.894 43.9089C43.2977 40.2793 46.3719 37.4401 50.0982 37.4401C52.0339 37.4401 53.8556 38.2097 55.1909 39.5409ZM43.8049 17.6801C44.3328 17.6801 44.9228 18.5329 44.9228 19.6769C44.9228 20.8209 44.3328 21.6737 43.8049 21.6737C43.2253 21.6737 41.8175 20.3737 41.8175 19.2505C41.8175 18.2417 43.1321 17.6905 43.8049 17.6905V17.6801ZM28.5581 41.6001H35.9072C35.6381 42.3593 35.3379 43.0457 35.0067 43.6801H29.1481L28.5581 41.6001ZM37.3149 43.6801C39.8716 37.9081 39.5611 29.6193 39.1056 24.9497C39.0021 23.9201 39.4161 22.9633 40.1511 22.3393C41.5484 27.3209 43.0389 32.3857 45.606 36.5457C43.0286 37.9809 41.2068 40.6121 40.8653 43.6905H37.3253L37.3149 43.6801ZM55.284 44.7201C55.284 47.5905 52.9654 49.9201 50.1086 49.9201C47.4898 49.9201 45.3472 47.9545 45.0056 45.3753L54.5077 42.0057C55.0149 42.8169 55.2944 43.7425 55.2944 44.7305L55.284 44.7201Z" fill="white"/>
<path d="M28.3614 10.4C30.649 10.4 32.5018 8.5384 32.5018 6.24V4.16C32.5018 1.8616 30.649 0 28.3614 0C26.0739 0 24.2211 1.8616 24.2211 4.16V6.24C24.2211 8.5384 26.0739 10.4 28.3614 10.4ZM26.2912 4.16C26.2912 3.016 27.2228 2.08 28.3614 2.08C29.5 2.08 30.4316 3.016 30.4316 4.16V6.24C30.4316 7.384 29.5 8.32 28.3614 8.32C27.2228 8.32 26.2912 7.384 26.2912 6.24V4.16Z" fill="white"/>
<path d="M12.4211 42.6401C12.9904 42.6401 13.4561 42.1721 13.4561 41.6001C13.4561 41.0281 12.9904 40.5601 12.4211 40.5601H10.3509C9.78159 40.5601 9.3158 41.0281 9.3158 41.6001C9.3158 42.1721 9.78159 42.6401 10.3509 42.6401H12.4211Z" fill="white"/>
<path d="M6.2105 2.08H14.4912C15.0605 2.08 15.5263 1.612 15.5263 1.04C15.5263 0.468 15.0605 0 14.4912 0H6.2105C5.6412 0 5.17542 0.468 5.17542 1.04C5.17542 1.612 5.6412 2.08 6.2105 2.08Z" fill="white"/>
<path d="M1.03509 12.4798H5.66193L2.60842 18.231C2.3393 18.7406 2.52561 19.3646 3.03281 19.635L11.2514 24.0446C11.4067 24.1278 11.5723 24.1694 11.7379 24.1694C11.7689 24.1694 11.8104 24.159 11.8414 24.159C11.9346 25.1574 12.3486 26.0934 13.0732 26.811C13.8909 27.6326 14.9777 28.0902 16.1681 28.0902H21.3435C24.0244 28.0902 26.3844 29.8062 27.2332 32.3542L28.5891 36.431C29.0032 37.6582 30.1418 38.4902 31.4356 38.4902C32.4086 38.4902 33.2988 38.0326 33.8681 37.2422C34.4374 36.4518 34.5926 35.4534 34.2718 34.5174C34.1165 34.0702 33.9612 33.6126 33.806 33.155C32.6053 29.6294 31.3735 25.979 28.5063 24.107C28.0302 23.795 27.3884 23.9302 27.0779 24.4086C26.7674 24.887 26.9019 25.5318 27.3781 25.8438C29.6346 27.3206 30.7111 30.4822 31.8393 33.8206C31.9946 34.2782 32.1498 34.7462 32.3051 35.183C32.3982 35.4742 32.3568 35.7758 32.1809 36.0254C31.7668 36.5974 30.7732 36.4414 30.5454 35.7758L29.1895 31.699C28.0612 28.2982 24.9042 26.0102 21.3332 26.0102H16.1163C15.516 26.0102 14.9467 25.771 14.5223 25.3446C14.0979 24.9182 13.8598 24.3462 13.8598 23.743V23.5558C13.8598 23.2542 13.9219 22.9526 14.0358 22.6822C15.4953 19.2398 17.2549 15.3502 19.2112 12.6046C19.9979 11.5022 21.1261 10.8158 22.3061 10.7014C23.4447 10.587 23.8174 11.0446 24.0037 11.4606C24.19 11.8662 24.19 12.3758 24.0244 12.9062L23.1032 15.6726C22.7823 16.6398 22.9375 17.659 23.5275 18.4806C24.1175 19.3022 25.0388 19.7806 26.0428 19.7806H30.3281C30.5558 19.7806 30.6903 19.9158 30.7525 19.999C30.8146 20.0822 30.8974 20.2486 30.8249 20.467C30.7525 20.675 30.5558 20.8206 30.3384 20.8206H24.0865C22.7512 20.8206 21.5609 19.9678 21.1365 18.6886L21.0433 18.4078C20.8674 17.867 20.2774 17.5654 19.7391 17.7526C19.2009 17.9294 18.9007 18.5222 19.087 19.063L19.1802 19.3438C19.884 21.4654 21.8611 22.9006 24.0865 22.9006H30.3384C31.4563 22.9006 32.4396 22.183 32.7916 21.1222C33.0504 20.3318 32.9158 19.4582 32.4396 18.7822C31.9635 18.1062 31.1665 17.7006 30.3384 17.7006H26.0532C25.7116 17.7006 25.4114 17.5446 25.2147 17.2638C25.0181 16.9934 24.9663 16.6502 25.0698 16.3278L25.9911 13.5614C26.3326 12.5318 26.2912 11.471 25.8875 10.587C25.5046 9.76541 24.5212 8.40301 22.1198 8.63181C21.4056 8.70461 20.7018 8.91261 20.0497 9.23501C20.0497 9.18301 20.0496 9.12061 20.0289 9.06861C19.9461 8.80861 19.7702 8.57981 19.5218 8.45501L11.3032 4.04541C11.0547 3.91021 10.7753 3.88941 10.5165 3.97261C10.2577 4.05581 10.03 4.23261 9.90579 4.48221L6.75912 10.4206H1.03509C0.465789 10.4206 0 10.8886 0 11.4606C0 12.0326 0.465789 12.5006 1.03509 12.5006V12.4798ZM11.2514 6.36461L17.6482 9.78621L11.3135 21.715L4.91667 18.2934L8.00123 12.4798H10.3509C10.9202 12.4798 11.386 12.0118 11.386 11.4398C11.386 10.8678 10.9202 10.3998 10.3509 10.3998H9.10877L11.2514 6.36461Z" fill="white"/>
<path d="M2.07018 9.35979H3.10527C3.67457 9.35979 4.14036 8.89179 4.14036 8.31979C4.14036 7.74779 3.67457 7.27979 3.10527 7.27979H2.07018C1.50088 7.27979 1.0351 7.74779 1.0351 8.31979C1.0351 8.89179 1.50088 9.35979 2.07018 9.35979Z" fill="white"/>
</g>
</svg>
