<svg width="16" height="16" viewBox="0 0 16 16" fill="none" xmlns="http://www.w3.org/2000/svg">
<path d="M16.0001 8.18125C16.0001 12.6031 12.823 15.75 8.13121 15.75C3.63285 15.75 6.10352e-05 12.2875 6.10352e-05 8C6.10352e-05 3.7125 3.63285 0.25 8.13121 0.25C10.3214 0.25 12.164 1.01562 13.5837 2.27813L11.3706 4.30625C8.47547 1.64375 3.09186 3.64375 3.09186 8C3.09186 10.7031 5.35744 12.8938 8.13121 12.8938C11.3509 12.8938 12.5574 10.6938 12.7476 9.55313H8.13121V6.8875H15.8722C15.9476 7.28437 16.0001 7.66562 16.0001 8.18125Z" fill="#A78430"/>
</svg>
