<svg width="16" height="16" viewBox="0 0 16 16" fill="none" xmlns="http://www.w3.org/2000/svg">
<path d="M4.00001 9.33333C4.00001 9.91111 4.11667 10.4583 4.35001 10.975C4.58334 11.4917 4.91667 11.9444 5.35001 12.3333C5.33889 12.2778 5.33334 12.2278 5.33334 12.1833V12.0333C5.33334 11.6778 5.40001 11.3444 5.53334 11.0333C5.66667 10.7222 5.86112 10.4389 6.11667 10.1833L8.00001 8.33333L9.88334 10.1833C10.1389 10.4389 10.3333 10.7222 10.4667 11.0333C10.6 11.3444 10.6667 11.6778 10.6667 12.0333V12.1833C10.6667 12.2278 10.6611 12.2778 10.65 12.3333C11.0833 11.9444 11.4167 11.4917 11.65 10.975C11.8833 10.4583 12 9.91111 12 9.33333C12 8.77778 11.8972 8.25278 11.6917 7.75833C11.4861 7.26389 11.1889 6.82222 10.8 6.43333C10.5778 6.57778 10.3444 6.68611 10.1 6.75833C9.85556 6.83056 9.60556 6.86667 9.35001 6.86667C8.66112 6.86667 8.06389 6.63889 7.55834 6.18333C7.05278 5.72778 6.76112 5.16667 6.68334 4.5C6.25001 4.86667 5.86667 5.24722 5.53334 5.64167C5.20001 6.03611 4.91945 6.43611 4.69167 6.84167C4.46389 7.24722 4.29167 7.66111 4.17501 8.08333C4.05834 8.50556 4.00001 8.92222 4.00001 9.33333ZM8.00001 10.2L7.05001 11.1333C6.92778 11.2556 6.83334 11.3944 6.76667 11.55C6.70001 11.7056 6.66667 11.8667 6.66667 12.0333C6.66667 12.3889 6.79723 12.6944 7.05834 12.95C7.31945 13.2056 7.63334 13.3333 8.00001 13.3333C8.36667 13.3333 8.68056 13.2056 8.94167 12.95C9.20278 12.6944 9.33334 12.3889 9.33334 12.0333C9.33334 11.8556 9.30001 11.6917 9.23334 11.5417C9.16667 11.3917 9.07223 11.2556 8.95001 11.1333L8.00001 10.2ZM8.00001 2V4.2C8.00001 4.57778 8.13056 4.89444 8.39167 5.15C8.65278 5.40556 8.97223 5.53333 9.35001 5.53333C9.55001 5.53333 9.73612 5.49167 9.90834 5.40833C10.0806 5.325 10.2333 5.2 10.3667 5.03333L10.6667 4.66667C11.4889 5.13333 12.1389 5.78333 12.6167 6.61667C13.0944 7.45 13.3333 8.35556 13.3333 9.33333C13.3333 10.8222 12.8167 12.0833 11.7833 13.1167C10.75 14.15 9.48889 14.6667 8.00001 14.6667C6.51112 14.6667 5.25001 14.15 4.21667 13.1167C3.18334 12.0833 2.66667 10.8222 2.66667 9.33333C2.66667 7.9 3.14723 6.53889 4.10834 5.25C5.06945 3.96111 6.36667 2.87778 8.00001 2Z" fill="#A78430"/>
</svg>
