<svg width="14" height="14" viewBox="0 0 14 14" fill="none" xmlns="http://www.w3.org/2000/svg">
<g opacity="0.5">
<path d="M6.41667 9.91663H7.58333V6.41663H6.41667V9.91663ZM7 5.24996C7.16528 5.24996 7.30382 5.19406 7.41562 5.08225C7.52743 4.97045 7.58333 4.8319 7.58333 4.66663C7.58333 4.50135 7.52743 4.36281 7.41562 4.251C7.30382 4.1392 7.16528 4.08329 7 4.08329C6.83472 4.08329 6.69618 4.1392 6.58437 4.251C6.47257 4.36281 6.41667 4.50135 6.41667 4.66663C6.41667 4.8319 6.47257 4.97045 6.58437 5.08225C6.69618 5.19406 6.83472 5.24996 7 5.24996ZM7 12.8333C6.19306 12.8333 5.43472 12.6802 4.725 12.3739C4.01528 12.0677 3.39792 11.652 2.87292 11.127C2.34792 10.602 1.93229 9.98468 1.62604 9.27496C1.31979 8.56524 1.16667 7.8069 1.16667 6.99996C1.16667 6.19302 1.31979 5.43468 1.62604 4.72496C1.93229 4.01524 2.34792 3.39788 2.87292 2.87288C3.39792 2.34788 4.01528 1.93225 4.725 1.626C5.43472 1.31975 6.19306 1.16663 7 1.16663C7.80694 1.16663 8.56528 1.31975 9.275 1.626C9.98472 1.93225 10.6021 2.34788 11.1271 2.87288C11.6521 3.39788 12.0677 4.01524 12.374 4.72496C12.6802 5.43468 12.8333 6.19302 12.8333 6.99996C12.8333 7.8069 12.6802 8.56524 12.374 9.27496C12.0677 9.98468 11.6521 10.602 11.1271 11.127C10.6021 11.652 9.98472 12.0677 9.275 12.3739C8.56528 12.6802 7.80694 12.8333 7 12.8333ZM7 11.6666C8.30278 11.6666 9.40625 11.2145 10.3104 10.3104C11.2146 9.40621 11.6667 8.30274 11.6667 6.99996C11.6667 5.69718 11.2146 4.59371 10.3104 3.68954C9.40625 2.78538 8.30278 2.33329 7 2.33329C5.69722 2.33329 4.59375 2.78538 3.68958 3.68954C2.78542 4.59371 2.33333 5.69718 2.33333 6.99996C2.33333 8.30274 2.78542 9.40621 3.68958 10.3104C4.59375 11.2145 5.69722 11.6666 7 11.6666Z" fill="#3C3C3C"/>
</g>
</svg>
