<svg width="70" height="70" viewBox="0 0 70 70" fill="none" xmlns="http://www.w3.org/2000/svg">
<g opacity="0.6" clip-path="url(#clip0_287_1033)">
<path d="M35 70C44.2826 70 53.185 66.3125 59.7487 59.7487C66.3125 53.185 70 44.2826 70 35C70 25.7174 66.3125 16.815 59.7487 10.2513C53.185 3.68749 44.2826 0 35 0C25.7174 0 16.815 3.68749 10.2513 10.2513C3.68749 16.815 0 25.7174 0 35C0 44.2826 3.68749 53.185 10.2513 59.7487C16.815 66.3125 25.7174 70 35 70ZM35 17.5C36.8184 17.5 38.2812 18.9629 38.2812 20.7812V36.0938C38.2812 37.9121 36.8184 39.375 35 39.375C33.1816 39.375 31.7188 37.9121 31.7188 36.0938V20.7812C31.7188 18.9629 33.1816 17.5 35 17.5ZM30.625 48.125C30.625 46.9647 31.0859 45.8519 31.9064 45.0314C32.7269 44.2109 33.8397 43.75 35 43.75C36.1603 43.75 37.2731 44.2109 38.0936 45.0314C38.9141 45.8519 39.375 46.9647 39.375 48.125C39.375 49.2853 38.9141 50.3981 38.0936 51.2186C37.2731 52.0391 36.1603 52.5 35 52.5C33.8397 52.5 32.7269 52.0391 31.9064 51.2186C31.0859 50.3981 30.625 49.2853 30.625 48.125Z" fill="#A78430"/>
</g>
<defs>
<clipPath id="clip0_287_1033">
<rect width="70" height="70" fill="white"/>
</clipPath>
</defs>
</svg>
