<svg width="14" height="14" viewBox="0 0 14 14" fill="none" xmlns="http://www.w3.org/2000/svg">
<path d="M2.33333 13.6667C1.96666 13.6667 1.65277 13.5362 1.39166 13.275C1.13055 13.0139 0.999995 12.7 0.999995 12.3334V4.81671C0.799995 4.69448 0.638884 4.53615 0.516662 4.34171C0.394439 4.14726 0.333328 3.92226 0.333328 3.66671V1.66671C0.333328 1.30004 0.463884 0.986152 0.724995 0.725041C0.986106 0.46393 1.29999 0.333374 1.66666 0.333374H12.3333C12.7 0.333374 13.0139 0.46393 13.275 0.725041C13.5361 0.986152 13.6667 1.30004 13.6667 1.66671V3.66671C13.6667 3.92226 13.6055 4.14726 13.4833 4.34171C13.3611 4.53615 13.2 4.69448 13 4.81671V12.3334C13 12.7 12.8694 13.0139 12.6083 13.275C12.3472 13.5362 12.0333 13.6667 11.6667 13.6667H2.33333ZM2.33333 5.00004V12.3334H11.6667V5.00004H2.33333ZM1.66666 3.66671H12.3333V1.66671H1.66666V3.66671ZM4.99999 8.33337H8.99999V7.00004H4.99999V8.33337Z" fill="#3C3C3C"/>
</svg>
