<svg width="16" height="16" viewBox="0 0 16 16" fill="none" xmlns="http://www.w3.org/2000/svg">
<g clip-path="url(#clip0_8_273)">
<path d="M7.33334 15.3V13.9666C5.94446 13.8111 4.75279 13.2361 3.75835 12.2416C2.7639 11.2472 2.1889 10.0555 2.03335 8.66662H0.700012V7.33328H2.03335C2.1889 5.9444 2.7639 4.75273 3.75835 3.75828C4.75279 2.76384 5.94446 2.18884 7.33334 2.03328V0.699951H8.66668V2.03328C10.0556 2.18884 11.2472 2.76384 12.2417 3.75828C13.2361 4.75273 13.8111 5.9444 13.9667 7.33328H15.3V8.66662H13.9667C13.8111 10.0555 13.2361 11.2472 12.2417 12.2416C11.2472 13.2361 10.0556 13.8111 8.66668 13.9666V15.3H7.33334ZM8.00001 12.6666C9.2889 12.6666 10.3889 12.2111 11.3 11.3C12.2111 10.3888 12.6667 9.28884 12.6667 7.99995C12.6667 6.71106 12.2111 5.61106 11.3 4.69995C10.3889 3.78884 9.2889 3.33328 8.00001 3.33328C6.71112 3.33328 5.61112 3.78884 4.70001 4.69995C3.7889 5.61106 3.33335 6.71106 3.33335 7.99995C3.33335 9.28884 3.7889 10.3888 4.70001 11.3C5.61112 12.2111 6.71112 12.6666 8.00001 12.6666ZM8.00001 10.6666C7.26668 10.6666 6.6389 10.4055 6.11668 9.88328C5.59446 9.36106 5.33335 8.73328 5.33335 7.99995C5.33335 7.26662 5.59446 6.63884 6.11668 6.11662C6.6389 5.5944 7.26668 5.33328 8.00001 5.33328C8.73335 5.33328 9.36112 5.5944 9.88334 6.11662C10.4056 6.63884 10.6667 7.26662 10.6667 7.99995C10.6667 8.73328 10.4056 9.36106 9.88334 9.88328C9.36112 10.4055 8.73335 10.6666 8.00001 10.6666ZM8.00001 9.33328C8.36668 9.33328 8.68057 9.20273 8.94168 8.94162C9.20279 8.68051 9.33335 8.36662 9.33335 7.99995C9.33335 7.63328 9.20279 7.3194 8.94168 7.05828C8.68057 6.79717 8.36668 6.66662 8.00001 6.66662C7.63335 6.66662 7.31946 6.79717 7.05835 7.05828C6.79723 7.3194 6.66668 7.63328 6.66668 7.99995C6.66668 8.36662 6.79723 8.68051 7.05835 8.94162C7.31946 9.20273 7.63335 9.33328 8.00001 9.33328Z" fill="#A78430"/>
</g>
<defs>
<clipPath id="clip0_8_273">
<rect width="16" height="16" fill="white"/>
</clipPath>
</defs>
</svg>
