<svg width="44" height="46" viewBox="0 0 44 46" fill="none" xmlns="http://www.w3.org/2000/svg">
<path fill-rule="evenodd" clip-rule="evenodd" d="M28.3516 13.1366C31.5542 13.1366 34.1494 15.7345 34.1494 18.94C34.1494 22.1455 31.5541 24.7433 28.3516 24.7433C25.149 24.7433 22.5539 22.1455 22.5539 18.94C22.5539 15.7345 25.1492 13.1366 28.3516 13.1366ZM8.5839 15.5089L9.21604 19.3932C9.26187 19.6761 9.04034 19.9342 8.75579 19.9342V19.9361H4.35007L11.7367 25.944L19.1233 19.9361H14.7176C14.4292 19.9361 14.1982 19.68 14.2631 19.3588L14.8894 15.5089C12.8938 16.4227 10.5794 16.4226 8.5839 15.5089ZM15.9285 14.9278C19.9045 12.2783 20.4832 6.6429 17.0934 3.25016C14.1352 0.289128 9.33816 0.289128 6.37989 3.25016C2.99013 6.6432 3.56878 12.2784 7.54482 14.9278L8.20751 18.9994H3.03409C2.60249 18.9994 2.37521 19.5576 2.76863 19.8539L11.4405 26.9076C11.6162 27.0509 11.8664 27.0433 12.0344 26.9037L17.0759 22.8034C18.1854 26.8215 23.7389 27.6321 28.3492 27.6378H28.3568C31.9834 27.5747 34.6302 27.0586 36.4577 26.1907C38.2337 25.3458 39.2574 24.1683 39.6641 22.748C40.8539 18.5865 36.4978 12.9779 33.2875 9.47209C33.4842 9.39563 33.6618 9.27902 33.8089 9.13183C34.7064 8.23341 34.1412 6.7137 32.9056 6.58754C34.0342 4.96653 35.0864 3.20405 35.2068 2.04372C35.371 0.451389 34.2863 -0.221483 30.7132 1.24278C29.8156 0.686527 29.1357 0.26597 28.475 0.0824591C28.3872 0.0576089 28.2993 0.0614318 28.2191 0.0843706C27.5621 0.269795 26.8823 0.688439 25.9886 1.24279C22.4155 -0.22148 21.3308 0.451392 21.495 2.04373C21.6153 3.20405 22.6675 4.96654 23.7962 6.58755C23.4448 6.62387 23.1297 6.78253 22.8929 7.01956C22.1213 7.79182 22.4135 9.0879 23.4142 9.47209C20.9278 12.1904 18.2139 15.7212 17.2479 19.0014H15.2675L15.9285 14.9278ZM18.2221 18.9994H20.4393V19.0013C20.8747 19.0013 21.0733 19.5538 20.7334 19.831L17.886 22.1478C18.1266 23.5298 19.0222 24.6749 20.7506 25.4701C22.4502 26.252 24.9291 26.6973 28.3474 26.705C31.8307 26.6438 34.3495 26.1583 36.0626 25.3459C39.1582 23.874 39.4848 21.3545 38.3008 18.3495C37.2561 15.6981 35.0103 12.6665 32.1398 9.60408C32.1302 9.59261 32.1207 9.58305 32.1111 9.57159H31.2728C31.4962 10.2559 31.3778 10.967 31.0226 11.659C30.9042 11.8884 30.6235 11.9782 30.3943 11.8597C30.1651 11.7412 30.0754 11.4602 30.1938 11.2308C30.4898 10.6554 30.5642 10.103 30.2568 9.57157H26.4488C26.1432 10.1049 26.2158 10.6554 26.5118 11.2308C26.6302 11.4602 26.5404 11.7412 26.3113 11.8597C26.0821 11.9782 25.8014 11.8884 25.683 11.659C25.3278 10.967 25.2093 10.2559 25.4328 9.57159H24.5944C24.5849 9.58305 24.5773 9.59261 24.5658 9.60408C22.0641 12.2688 19.2589 15.7935 18.2215 18.9993L18.2221 18.9994ZM11.7365 9.0786C10.5601 9.08243 9.39321 8.34265 9.39321 7.18805H9.3913C9.3913 6.17111 10.3213 5.47338 11.3125 5.32618L11.3182 4.86549C11.3259 4.25188 12.2578 4.26333 12.2501 4.87696L12.2444 5.34147C13.1973 5.5116 14.0701 6.20548 14.0796 7.18421C14.0816 7.44227 13.8753 7.65254 13.6175 7.65446C13.3597 7.65637 13.1496 7.44992 13.1477 7.19186C13.1401 6.36797 11.5951 5.86716 10.6899 6.5553C10.4646 6.72543 10.3271 6.95099 10.3271 7.18804H10.3252C10.329 7.78447 11.0833 8.14572 11.7212 8.14572H11.7517V8.14381C12.9167 8.14381 14.0797 8.88549 14.0797 10.0363H14.0816C14.0816 11.0532 13.1516 11.7509 12.1604 11.8962L12.1547 12.3569C12.147 12.9705 11.2151 12.9591 11.2227 12.3455L11.2285 11.8809C10.2755 11.7108 9.40086 11.0169 9.39324 10.0382C9.39133 9.78014 9.59758 9.56987 9.85539 9.56796C10.1132 9.56604 10.3233 9.77249 10.3252 10.0306C10.3328 10.8564 11.8778 11.3553 12.783 10.6671C13.0083 10.497 13.1458 10.2714 13.1458 10.0344H13.1477C13.1439 9.43794 12.3953 9.0786 11.7517 9.0786V9.07669H11.7364L11.7365 9.0786ZM11.7365 2.82945C14.9276 2.82945 17.5132 5.41774 17.5132 8.61175C17.5132 11.8058 14.9274 14.394 11.7365 14.394C8.54533 14.394 5.95974 11.8058 5.95974 8.61175C5.95974 5.41774 8.54553 2.82945 11.7365 2.82945ZM15.1606 5.18451C17.0512 7.07697 17.0512 10.1452 15.1606 12.0395C13.27 13.9319 10.2047 13.9319 8.31418 12.0395C6.42355 10.147 6.42355 7.07883 8.31418 5.18451C10.2029 3.29205 13.2701 3.29205 15.1606 5.18451ZM16.4325 3.91138C19.0259 6.5073 19.0259 10.7145 16.4325 13.3106C13.8391 15.9065 9.63594 15.9065 7.04239 13.3106C4.44898 10.7146 4.44898 6.50745 7.04239 3.91138C9.63389 1.31737 13.8389 1.31737 16.4325 3.91138ZM28.3511 8.63485H23.9492C23.7964 8.63485 23.657 8.57176 23.5558 8.47045C23.1987 8.11299 23.4622 7.51659 23.9492 7.51659H32.7531C32.9059 7.51659 33.0453 7.57967 33.1465 7.68098C33.5036 8.03845 33.2401 8.63485 32.7531 8.63485L28.3512 8.63294L28.3511 8.63485ZM28.3511 6.57992H24.9327C24.9231 6.56272 24.9136 6.54551 24.9002 6.52831C23.7219 4.88435 22.5341 3.01866 22.4233 1.94818C22.3488 1.22558 23.1834 1.06884 25.8436 2.19094C26.0957 2.29991 26.2523 2.17565 26.4433 2.05713C27.2282 1.56968 27.8355 1.19312 28.3511 1.01915C28.8648 1.1931 29.4721 1.56968 30.2589 2.05713C30.4499 2.17565 30.6084 2.29799 30.8528 2.19477C33.5168 1.06884 34.3533 1.22558 34.2788 1.94817C34.1681 3.02056 32.9802 4.88434 31.8019 6.5283C31.7905 6.54551 31.779 6.56271 31.7695 6.57992L28.351 6.578L28.3511 6.57992ZM0.811009 30.6521L5.21864 29.2261C5.46308 29.1477 5.72664 29.2834 5.80491 29.5281L6.0188 30.1952L7.48928 29.6944C7.73373 29.6122 7.99919 29.7422 8.08128 29.9869L8.29135 30.656L8.82991 30.3769C13.0198 28.2015 16.9254 26.1753 21.6271 28.9011L22.2993 29.2663C23.5043 29.9564 25.7826 31.2447 28.4695 30.893C29.159 30.8089 29.6249 30.7267 30.3773 30.5814C32.4532 30.1838 34.4508 29.7996 34.7946 31.4435C34.89 31.9042 34.8079 32.3477 34.5959 32.7682C36.7444 31.7131 37.4529 31.1892 39.2576 29.6313C40.7796 28.3181 42.0152 27.2514 42.9624 28.0447C43.6996 28.6621 43.6175 29.7479 43.1801 30.8279C42.8192 31.7168 42.1967 32.6803 41.5187 33.4908C41.0661 34.0317 40.581 34.5115 40.1265 34.8614C38.1518 36.8093 35.5164 38.4417 32.9041 39.6116C29.9345 40.9382 26.9744 41.6722 25.0321 41.5958C24.4401 41.6455 22.4959 41.4219 20.3781 41.1772C17.8859 40.8904 15.1514 40.5769 14.2973 40.6496C13.7091 40.6993 12.2863 41.16 11.6714 41.3875L11.9751 42.3509C12.0514 42.5956 11.9159 42.8555 11.6733 42.9339L10.2697 43.4118L10.4263 43.9031C10.5046 44.1478 10.3709 44.4116 10.1245 44.4899L5.7169 45.916C5.47245 45.9944 5.20889 45.8586 5.13062 45.614L0.509106 31.239C0.428899 30.9943 0.564653 30.7324 0.811009 30.6521ZM5.06014 30.2602L1.54053 31.3976L5.8756 44.882L9.39522 43.7446L5.06014 30.2602ZM32.8256 34.5651C33.0261 34.525 34.1796 34.0222 35.2166 33.5061C37.3211 32.4566 38.1098 31.8564 39.8686 30.3386C41.0584 29.3121 42.0247 28.4786 42.3628 28.7634C42.7275 29.0693 42.6034 29.7632 42.3131 30.48C41.8109 31.7149 40.6134 33.3244 39.5345 34.1426C39.5173 34.156 39.502 34.1694 39.4867 34.1827C37.5961 36.0542 35.0523 37.6293 32.524 38.759C29.6651 40.0379 26.8504 40.7414 25.0415 40.6611C25.009 40.6591 24.9785 40.6611 24.9479 40.6668C24.1115 40.7757 15.8404 39.5791 14.2212 39.7167C13.5452 39.7741 12.1072 40.2329 11.391 40.4967L8.57607 31.56C12.7641 29.4076 16.6427 27.0869 21.1708 29.7172C21.1937 29.7306 21.2186 29.7421 21.2415 29.7516L21.8373 30.0785C23.134 30.8202 25.5823 32.208 28.5767 31.8219C29.2145 31.7588 29.8887 31.6288 30.5532 31.5007C32.1708 31.191 33.7253 30.8928 33.88 31.6345C34.006 32.2386 33.5019 32.8828 32.7609 33.462C31.5425 34.4178 29.7378 35.148 28.7581 35.3812C28.2272 35.4653 27.1253 35.2379 26.0902 35.0238C25.1774 34.8345 24.3142 34.6567 23.8005 34.6892L20.1262 34.6548C19.5132 34.6491 19.5055 35.5819 20.1185 35.5877L23.7909 35.6221C23.8119 35.624 23.8329 35.624 23.8539 35.6221C24.7801 35.5628 27.8949 36.5453 28.957 36.2968C29.8928 36.0732 31.5332 35.429 32.8261 34.5649L32.8256 34.5651ZM7.3364 30.7343L6.38537 31.0593L9.99474 42.5172L10.9477 42.1922L7.3364 30.7343ZM28.3508 19.4046H28.3661V19.4065C29.0058 19.4065 29.7525 19.764 29.7564 20.3566H29.7545C29.7545 20.5936 29.617 20.8173 29.3935 20.9874C28.4921 21.6718 26.9548 21.1748 26.9472 20.3528C26.9453 20.0947 26.7352 19.8883 26.4774 19.8902C26.2196 19.8921 26.0133 20.1024 26.0152 20.3604C26.0248 21.3372 26.8956 22.0292 27.8448 22.1993L27.839 22.66C27.8314 23.2736 28.7633 23.2851 28.771 22.6715L28.7767 22.2127C29.764 22.0674 30.6902 21.3716 30.6902 20.3566H30.6883C30.6883 19.2077 29.5272 18.4698 28.3661 18.4698V18.4718H28.3356V18.4698C27.6958 18.4698 26.9491 18.1124 26.9453 17.5198H26.9472C26.9472 17.2828 27.0866 17.0591 27.3081 16.889C28.2095 16.2046 29.7468 16.7016 29.7545 17.5236C29.7564 17.7817 29.9664 17.9881 30.2242 17.9862C30.4821 17.9843 30.6883 17.774 30.6864 17.516C30.6768 16.5392 29.806 15.8471 28.8569 15.677L28.8626 15.2164C28.8702 14.6027 27.9383 14.5913 27.9307 15.2049L27.925 15.6637C26.9376 15.8089 26.0114 16.5067 26.0114 17.5198H26.0133C26.0133 18.6687 27.1744 19.4065 28.3355 19.4065V19.4046L28.3508 19.4065V19.4046ZM31.7883 15.4974C29.89 13.5973 26.8114 13.5973 24.9116 15.4974C23.0133 17.3975 23.0133 20.4791 24.9116 22.3807C26.8098 24.2808 29.8885 24.2808 31.7883 22.3807C33.6884 20.4806 33.6884 17.399 31.7883 15.4974Z" fill="white"/>
</svg>
