<svg width="14" height="13" viewBox="0 0 14 13" fill="none" xmlns="http://www.w3.org/2000/svg">
<path d="M1.66667 12.3334V3.73337L0.366669 0.900041L1.56667 0.333374L3.13334 3.70004H10.8667L12.4333 0.333374L13.6333 0.900041L12.3333 3.73337V12.3334H1.66667ZM5.66667 7.66671H8.33333C8.52222 7.66671 8.68056 7.60282 8.80834 7.47504C8.93611 7.34726 9 7.18893 9 7.00004C9 6.81115 8.93611 6.65282 8.80834 6.52504C8.68056 6.39726 8.52222 6.33337 8.33333 6.33337H5.66667C5.47778 6.33337 5.31945 6.39726 5.19167 6.52504C5.06389 6.65282 5 6.81115 5 7.00004C5 7.18893 5.06389 7.34726 5.19167 7.47504C5.31945 7.60282 5.47778 7.66671 5.66667 7.66671ZM3 11H11V5.03337H3V11Z" fill="#A78430"/>
</svg>
