<svg width="12" height="14" viewBox="0 0 12 14" fill="none" xmlns="http://www.w3.org/2000/svg">
<path d="M5.33333 11.95V7.38337L1.33333 5.06671V9.63337L5.33333 11.95ZM6.66667 11.95L10.6667 9.63337V5.06671L6.66667 7.38337V11.95ZM5.33333 13.4834L0.666667 10.8C0.455556 10.6778 0.291667 10.5167 0.175 10.3167C0.0583333 10.1167 0 9.89448 0 9.65004V4.35004C0 4.1056 0.0583333 3.88337 0.175 3.68337C0.291667 3.48337 0.455556 3.32226 0.666667 3.20004L5.33333 0.516707C5.54444 0.394485 5.76667 0.333374 6 0.333374C6.23333 0.333374 6.45556 0.394485 6.66667 0.516707L11.3333 3.20004C11.5444 3.32226 11.7083 3.48337 11.825 3.68337C11.9417 3.88337 12 4.1056 12 4.35004V9.65004C12 9.89448 11.9417 10.1167 11.825 10.3167C11.7083 10.5167 11.5444 10.6778 11.3333 10.8L6.66667 13.4834C6.45556 13.6056 6.23333 13.6667 6 13.6667C5.76667 13.6667 5.54444 13.6056 5.33333 13.4834ZM8.66667 4.68337L9.95 3.95004L6 1.66671L4.7 2.41671L8.66667 4.68337ZM6 6.23337L7.3 5.48337L3.35 3.20004L2.05 3.95004L6 6.23337Z" fill="white"/>
</svg>
