<svg width="16" height="17" viewBox="0 0 16 17" fill="none" xmlns="http://www.w3.org/2000/svg">
<g clip-path="url(#clip0_234_426)">
<path d="M5.15313 0.816569C4.9125 0.198991 4.27813 -0.12972 3.67188 0.0462565L0.921875 0.843131C0.378125 1.00251 0 1.52712 0 2.12477C0 10.3392 6.26875 16.9998 14 16.9998C14.5625 16.9998 15.0563 16.598 15.2063 16.0203L15.9563 13.0984C16.1219 12.4543 15.8125 11.7802 15.2313 11.5246L12.2313 10.1965C11.7219 9.97067 11.1313 10.1267 10.7844 10.5816L9.52188 12.2185C7.32188 11.1129 5.54063 9.22028 4.5 6.88278L6.04063 5.54469C6.46875 5.17282 6.61563 4.5486 6.40313 4.00739L5.15313 0.819889V0.816569Z" fill="#A78430"/>
</g>
<defs>
<clipPath id="clip0_234_426">
<rect width="16" height="17" fill="white"/>
</clipPath>
</defs>
</svg>
