<svg width="46" height="46" viewBox="0 0 46 46" fill="none" xmlns="http://www.w3.org/2000/svg">
<g opacity="0.5" clip-path="url(#clip0_112_346)">
<path d="M18.676 24.3456C18.7639 24.3781 18.8519 24.3934 18.9398 24.3934C19.2514 24.3934 19.5439 24.2022 19.6566 23.8926C19.8019 23.4969 19.5993 23.0572 19.2036 22.9119C17.6208 22.3289 16.2292 21.398 15.1014 20.2281C17.1678 18.0909 20.016 16.8618 22.9982 16.8618C25.9841 16.8618 28.8304 18.0909 30.897 20.23C29.9221 21.2393 28.7522 22.0727 27.4217 22.6596C27.0356 22.8297 26.8597 23.2808 27.0298 23.667C27.1981 24.0531 27.6511 24.2309 28.0372 24.0588C32.5849 22.0575 35.523 17.5557 35.523 12.5877C35.523 5.68135 29.9051 0.0610352 22.9983 0.0610352C16.0939 0.0610352 10.4755 5.67891 10.4755 12.5877C10.4755 17.8161 13.7708 22.5413 18.676 24.3456ZM23 1.59027C29.0636 1.59027 33.9954 6.52402 33.9954 12.5877C33.9954 14.9619 33.227 17.2118 31.885 19.0546C29.5395 16.69 26.3455 15.3309 22.9982 15.3309C19.6549 15.3309 16.4628 16.6862 14.1173 19.0489C12.7792 17.2062 12.0031 14.9581 12.0031 12.5878C12.0031 6.52417 16.9349 1.59042 22.9986 1.59042L23 1.59027Z" fill="white"/>
<path d="M22.998 14.2274C23.0649 14.2274 23.1318 14.2255 23.1987 14.2236C25.7259 14.1146 27.6929 11.9698 27.5839 9.44277C27.4749 6.91565 25.3072 4.94103 22.803 5.05765C21.5777 5.11117 20.448 5.63685 19.6203 6.53909C18.7926 7.44133 18.3644 8.61315 18.4179 9.83847C18.5231 12.2986 20.5589 14.2294 22.9981 14.2294L22.998 14.2274ZM20.7462 7.57111C21.3273 6.93646 22.1416 6.57903 23.0018 6.57903C24.6286 6.57903 25.9858 7.86551 26.0565 9.50566C26.1292 11.1897 24.8179 12.6196 23.1337 12.6941C21.4362 12.7534 20.0179 11.4555 19.9452 9.77133C19.9108 8.95508 20.1937 8.17327 20.7481 7.57111H20.7462Z" fill="white"/>
<path d="M28.3679 32.7393L34.5348 28.2586C34.8024 28.0637 34.9152 27.7196 34.812 27.4042C34.7087 27.0888 34.4163 26.8766 34.0856 26.8766H26.4623L24.1072 19.6282C24.004 19.3128 23.7115 19.1006 23.3808 19.1006C23.0501 19.1006 22.7558 19.3147 22.6544 19.6282L20.2994 26.8766H12.678C12.3473 26.8766 12.053 27.0907 11.9516 27.4042C11.8484 27.7196 11.9612 28.0637 12.2288 28.2586L18.3957 32.7393L16.0407 39.9878C15.9375 40.3032 16.0503 40.6473 16.3179 40.8422C16.5874 41.0372 16.9487 41.0372 17.2163 40.8422L23.3832 36.3615L29.5502 40.8422C29.684 40.9397 29.8426 40.9875 29.9994 40.9875C30.1561 40.9875 30.3148 40.9397 30.4486 40.8422C30.7162 40.6473 30.829 40.3032 30.7258 39.9878L28.3707 32.7393H28.3679ZM23.8298 34.8C23.5603 34.605 23.199 34.605 22.9314 34.8L18.2194 38.2236L20.0201 32.684C20.1233 32.3686 20.0105 32.0245 19.7429 31.8296L15.0309 28.4059H20.8533C21.184 28.4059 21.4784 28.1918 21.5797 27.8784L23.3804 22.3388L25.1792 27.8784C25.2824 28.1938 25.5749 28.4059 25.9056 28.4059H31.73L27.018 31.8296C26.7504 32.0246 26.6376 32.3687 26.7408 32.684L28.5415 38.2236L23.8298 34.8Z" fill="white"/>
<path d="M45.9007 32.3528C45.7975 32.0374 45.505 31.8252 45.1743 31.8252H37.551L36.859 29.6976C36.729 29.2962 36.297 29.0764 35.8955 29.2063C35.4941 29.3363 35.2743 29.7683 35.4043 30.1698L36.2683 32.8269C36.3715 33.1423 36.664 33.3544 36.9947 33.3544H42.8191L38.1071 36.7781C37.8394 36.9731 37.7267 37.3172 37.8299 37.6325L39.6287 43.1721L34.9167 39.7485C34.6471 39.5535 34.2858 39.5535 34.0182 39.7485L33.0395 40.4615C32.6973 40.71 32.6228 41.1879 32.8713 41.5301C33.1198 41.8722 33.5977 41.9487 33.9399 41.6983L34.4694 41.3121L40.6363 45.7928C40.7701 45.8903 40.9288 45.9381 41.0855 45.9381C41.2423 45.9381 41.4009 45.8903 41.5347 45.7928C41.8024 45.5979 41.9151 45.2538 41.8119 44.9384L39.4569 37.6899L45.6238 33.2092C45.8914 33.0143 46.0042 32.6702 45.901 32.3548L45.9007 32.3528Z" fill="white"/>
<path d="M11.9796 39.749C11.7101 39.5541 11.3488 39.5541 11.0812 39.749L6.36916 43.1727L8.16795 37.6331C8.27118 37.3177 8.15839 36.9736 7.89077 36.7786L3.17876 33.355H9.00314C9.33384 33.355 9.6282 33.1409 9.72955 32.8274L10.7369 29.723C10.8669 29.3216 10.6471 28.8896 10.2457 28.7596C9.84616 28.6296 9.41225 28.8494 9.28222 29.2508L8.44688 31.8257H0.825565C0.494864 31.8257 0.200503 32.0398 0.0991562 32.3533C-0.00406978 32.6687 0.108714 33.0128 0.376336 33.2078L6.54327 37.6884L4.18822 44.9369C4.08499 45.2523 4.19778 45.5964 4.4654 45.7913C4.59921 45.8888 4.75787 45.9366 4.91462 45.9366C5.07136 45.9366 5.23003 45.8888 5.36384 45.7913L11.5308 41.3107L12.6758 42.1422C13.018 42.3888 13.4959 42.3142 13.7444 41.974C13.9929 41.6318 13.9164 41.1539 13.5761 40.9054L11.9819 39.747L11.9796 39.749Z" fill="white"/>
</g>
<defs>
<clipPath id="clip0_112_346">
<rect width="46" height="46" fill="white"/>
</clipPath>
</defs>
</svg>
