<svg width="41" height="59" viewBox="0 0 41 59" fill="none" xmlns="http://www.w3.org/2000/svg">
<g opacity="0.5" clip-path="url(#clip0_112_306)">
<path d="M33.3018 28.0777C32.9652 27.4877 32.9468 26.817 33.2528 26.2767C33.5955 25.6742 34.2686 25.3327 35.0948 25.3327C35.7679 25.3327 36.7103 25.4196 37.0958 26.1587C37.5303 26.9847 36.9306 27.8914 36.3554 28.7733C36.1106 29.1459 35.6945 29.7732 35.7006 29.9906C35.7006 30.4005 35.3824 30.7482 34.9846 30.7607C34.9785 30.7607 34.9724 30.7607 34.9663 30.7607C34.5746 30.7607 34.2503 30.4564 34.2319 30.0589C34.2013 29.3633 34.6542 28.6739 35.1376 27.9411C35.3395 27.6368 35.6516 27.1586 35.7495 26.8915C35.6455 26.8605 35.4436 26.8294 35.1009 26.8294C34.7704 26.8294 34.5868 26.935 34.5379 27.0219C34.4828 27.1213 34.5501 27.2641 34.5868 27.32C34.7888 27.6803 34.6664 28.1336 34.3176 28.3448C33.9627 28.5497 33.516 28.4255 33.3079 28.0715L33.3018 28.0777ZM35.0152 31.0588C34.6113 31.1022 34.3176 31.4687 34.3604 31.8848L34.3727 31.9904C34.4094 32.3754 34.7337 32.6611 35.107 32.6611C35.1315 32.6611 35.156 32.6611 35.1866 32.6611C35.5904 32.6176 35.8842 32.2512 35.8413 31.8351L35.8291 31.7295C35.7863 31.3196 35.4191 31.0215 35.0152 31.065V31.0588ZM37.9709 33.543C38.3625 34.8161 38.5706 36.1328 38.5706 37.4743V44.9828C38.5706 46.2621 37.6037 47.2993 36.4166 47.2993H32.6164V48.2992C32.6164 49.1811 31.9127 49.8953 31.0437 49.8953H30.9091V51.8268C30.9091 52.0938 30.7683 52.3422 30.5419 52.4727L19.888 58.7142C19.888 58.7142 19.8513 58.7267 19.833 58.7391C19.8146 58.7515 19.7901 58.7577 19.7718 58.7639C19.6922 58.795 19.6066 58.8136 19.5209 58.8136C19.4352 58.8136 19.3495 58.795 19.27 58.7639C19.2516 58.7577 19.2271 58.7453 19.2088 58.7391C19.1904 58.7329 19.1721 58.7267 19.1537 58.7142L8.49983 52.4727C8.27341 52.336 8.13267 52.0938 8.13267 51.8268V49.8953H7.91849C7.04953 49.8953 6.3458 49.1811 6.3458 48.2992V47.2993H2.63132C1.44416 47.2993 0.477295 46.2559 0.477295 44.9828V37.4743C0.477295 30.3321 6.02148 24.5191 12.8324 24.5191H13.5851C9.54625 22.3516 6.7864 18.0477 6.7864 13.0979C6.7864 5.96825 12.5019 0.173828 19.5209 0.173828C26.5398 0.173828 32.2554 5.96825 32.2554 13.0979C32.2554 18.0477 29.4955 22.3516 25.4567 24.5191H26.2094C27.8494 24.5191 29.4282 24.8545 30.9274 25.5066C31.9127 24.2458 33.4364 23.4322 35.1437 23.4322C38.1116 23.4322 40.5227 25.8854 40.5227 28.8975C40.5227 30.86 39.4946 32.5741 37.9648 33.543H37.9709ZM31.2334 28.8975C31.2334 31.0836 32.9897 32.866 35.1437 32.866C37.2977 32.866 39.0479 31.0836 39.0479 28.8975C39.0479 26.7114 37.2977 24.929 35.1437 24.929C32.9897 24.929 31.2334 26.7114 31.2334 28.8975ZM19.5086 24.5129H19.5331C25.7382 24.5067 30.7806 19.383 30.7806 13.0917C30.7806 6.80046 25.7321 1.67057 19.5209 1.67057C13.3097 1.67057 8.26118 6.79425 8.26118 13.0979C8.26118 19.4016 13.3036 24.5129 19.5086 24.5191V24.5129ZM7.91237 48.4048H9.77267C9.82162 48.4048 9.87058 48.3551 9.87058 48.3054V44.8027C9.87058 44.753 9.82162 44.7033 9.77267 44.7033H7.91237C7.8573 44.7033 7.81446 44.7468 7.81446 44.8027V48.3054C7.81446 48.3613 7.8573 48.4048 7.91237 48.4048ZM28.6939 39.3498L19.5209 33.9715L15.6718 36.2259L24.8509 41.6042L28.7 39.3498H28.6939ZM10.3357 39.3498L19.5148 44.7281L23.3639 42.4737L14.1848 37.0954L10.3357 39.3498ZM9.59521 51.4045L18.7743 56.7828V46.0261L9.59521 40.6478V43.2066H9.76655C10.6355 43.2066 11.3392 43.9208 11.3392 44.8027V48.3054C11.3392 49.1873 10.6355 49.9015 9.76655 49.9015H9.59521V51.3983V51.4045ZM29.4282 49.9077H29.1773C28.3083 49.9077 27.6046 49.1935 27.6046 48.3116V44.8089C27.6046 43.927 28.3083 43.2128 29.1773 43.2128H29.4282V40.654L25.5791 42.9085V46.2808C25.5791 46.6969 25.2486 47.0322 24.8386 47.0322C24.4286 47.0322 24.0982 46.6969 24.0982 46.2808V43.7717L20.2491 46.0324V56.789L29.4221 51.4107V49.9139L29.4282 49.9077ZM31.1355 44.8089C31.1355 44.7592 31.0866 44.7095 31.0376 44.7095H29.1773C29.1222 44.7095 29.0794 44.753 29.0794 44.8089V48.3116C29.0794 48.3675 29.1222 48.411 29.1773 48.411H31.0376C31.0866 48.411 31.1355 48.3613 31.1355 48.3116V44.8089ZM36.6063 34.1578C36.1412 34.2945 35.6455 34.369 35.1376 34.369C32.1697 34.369 29.7525 31.9158 29.7525 28.9037C29.7525 28.1647 29.8994 27.4629 30.1625 26.8232C28.9019 26.3015 27.5801 26.0158 26.2094 26.0158H19.527C19.527 26.0158 19.5209 26.0158 19.5148 26.0158C19.5086 26.0158 19.5086 26.0158 19.5025 26.0158H12.8201C6.82312 26.0158 1.93983 31.1581 1.93983 37.4743V44.9828C1.93983 45.4299 2.25192 45.8026 2.61297 45.8026H6.32744V44.8027C6.32744 43.9208 7.03118 43.2066 7.90013 43.2066H8.11431V39.3498C8.11431 39.3498 8.11431 39.3126 8.12043 39.2939C8.12043 39.2691 8.12043 39.2505 8.12655 39.2256C8.13879 39.1387 8.16327 39.0579 8.2061 38.9772C8.24894 38.9027 8.31013 38.8406 8.37745 38.7847C8.3958 38.7723 8.41416 38.7536 8.43252 38.7412C8.45088 38.7288 8.46312 38.7164 8.47536 38.7039L19.1292 32.4624C19.3557 32.3257 19.6371 32.3257 19.8697 32.4624L30.5236 38.7039C30.5236 38.7039 30.5542 38.7288 30.5725 38.7412C30.5909 38.7536 30.6092 38.766 30.6276 38.7847C30.6949 38.8406 30.7561 38.9027 30.7989 38.9772C30.8418 39.0517 30.8663 39.1387 30.8785 39.2256C30.8785 39.2505 30.8846 39.2691 30.8846 39.2939C30.8846 39.3126 30.8907 39.3312 30.8907 39.3498V43.2066H31.0254C31.8943 43.2066 32.598 43.9208 32.598 44.8027V45.8026H36.3982C36.7715 45.8026 37.0774 45.4361 37.0774 44.9828V37.4743C37.0774 36.3439 36.9122 35.2323 36.6001 34.1516L36.6063 34.1578Z" fill="white"/>
</g>
<defs>
<clipPath id="clip0_112_306">
<rect width="41" height="59" fill="white"/>
</clipPath>
</defs>
</svg>
