<svg width="15" height="14" viewBox="0 0 15 14" fill="none" xmlns="http://www.w3.org/2000/svg">
<path d="M4.30881 13.7728C3.26846 14.3076 2.39248 13.686 2.59129 12.5527L3.18823 9.14958C3.19212 9.12742 3.16358 9.04196 3.14731 9.02646L0.61863 6.61638C-0.223033 5.81419 0.110852 4.80753 1.27466 4.64218L4.76922 4.14567C4.79198 4.14244 4.86628 4.08949 4.87633 4.06958L6.43915 0.973343C6.95932 -0.0572266 8.04165 -0.0578148 8.56212 0.973343L10.1249 4.06958C10.1351 4.08975 10.2096 4.14248 10.232 4.14567L13.7266 4.64218C14.8898 4.80744 15.2248 5.81373 14.3826 6.61638L11.854 9.02646C11.8375 9.04216 11.8092 9.1277 11.813 9.14958L12.41 12.5527C12.6087 13.6854 11.7334 14.3079 10.6925 13.7728L7.56683 12.1661C7.54648 12.1556 7.45454 12.1557 7.43444 12.1661L4.30881 13.7728ZM8.04275 11.2809L11.1684 12.8877C11.4587 13.0369 11.4574 13.0378 11.402 12.7217L10.805 9.31863C10.7444 8.97288 10.8822 8.55619 11.1401 8.31038L13.6688 5.90029C13.9037 5.67641 13.9042 5.67791 13.5795 5.63178L10.085 5.13528C9.72995 5.08484 9.36722 4.82795 9.20782 4.51215L7.64501 1.41591C7.49983 1.12829 7.50144 1.12829 7.35626 1.41591L5.79345 4.51215C5.63467 4.82671 5.27272 5.08464 4.91629 5.13528L1.42173 5.63178C1.09711 5.67791 1.09761 5.67641 1.3325 5.90029L3.86119 8.31038C4.1181 8.55523 4.25712 8.97153 4.19624 9.31863L3.59929 12.7217C3.54384 13.0378 3.54254 13.0369 3.83289 12.8877L6.95852 11.2809C7.27607 11.1177 7.72395 11.1171 8.04275 11.2809Z" fill="white"/>
</svg>
