<svg width="16" height="18" viewBox="0 0 16 18" fill="none" xmlns="http://www.w3.org/2000/svg">
<g clip-path="url(#clip0_9_850)">
<path d="M10.8571 4.5C10.8571 3.75408 10.5561 3.03871 10.0203 2.51126C9.48449 1.98382 8.75776 1.6875 8 1.6875C7.24224 1.6875 6.51551 1.98382 5.9797 2.51126C5.44388 3.03871 5.14286 3.75408 5.14286 4.5C5.14286 5.24592 5.44388 5.96129 5.9797 6.48874C6.51551 7.01618 7.24224 7.3125 8 7.3125C8.75776 7.3125 9.48449 7.01618 10.0203 6.48874C10.5561 5.96129 10.8571 5.24592 10.8571 4.5ZM3.42857 4.5C3.42857 3.30653 3.9102 2.16193 4.76751 1.31802C5.62482 0.474106 6.78758 0 8 0C9.21242 0 10.3752 0.474106 11.2325 1.31802C12.0898 2.16193 12.5714 3.30653 12.5714 4.5C12.5714 5.69347 12.0898 6.83807 11.2325 7.68198C10.3752 8.52589 9.21242 9 8 9C6.78758 9 5.62482 8.52589 4.76751 7.68198C3.9102 6.83807 3.42857 5.69347 3.42857 4.5ZM1.76071 16.3125H14.2393C13.9214 14.0871 11.9786 12.375 9.63214 12.375H6.36786C4.02143 12.375 2.07857 14.0871 1.76071 16.3125ZM0 16.9559C0 13.493 2.85 10.6875 6.36786 10.6875H9.63214C13.15 10.6875 16 13.493 16 16.9559C16 17.5324 15.525 18 14.9393 18H1.06071C0.475 18 0 17.5324 0 16.9559Z" fill="black"/>
</g>
<defs>
<clipPath id="clip0_9_850">
<rect width="16" height="18" fill="white"/>
</clipPath>
</defs>
</svg>
