<svg width="14" height="14" viewBox="0 0 14 14" fill="none" xmlns="http://www.w3.org/2000/svg">
<path d="M9.19999 10.1334L10.1333 9.20004L7.66666 6.73337V3.66671H6.33333V7.26671L9.19999 10.1334ZM6.99999 13.6667C6.07777 13.6667 5.21111 13.4917 4.39999 13.1417C3.58888 12.7917 2.88333 12.3167 2.28333 11.7167C1.68333 11.1167 1.20833 10.4112 0.858328 9.60004C0.508328 8.78893 0.333328 7.92226 0.333328 7.00004C0.333328 6.07782 0.508328 5.21115 0.858328 4.40004C1.20833 3.58893 1.68333 2.88337 2.28333 2.28337C2.88333 1.68337 3.58888 1.20837 4.39999 0.858374C5.21111 0.508374 6.07777 0.333374 6.99999 0.333374C7.92222 0.333374 8.78888 0.508374 9.59999 0.858374C10.4111 1.20837 11.1167 1.68337 11.7167 2.28337C12.3167 2.88337 12.7917 3.58893 13.1417 4.40004C13.4917 5.21115 13.6667 6.07782 13.6667 7.00004C13.6667 7.92226 13.4917 8.78893 13.1417 9.60004C12.7917 10.4112 12.3167 11.1167 11.7167 11.7167C11.1167 12.3167 10.4111 12.7917 9.59999 13.1417C8.78888 13.4917 7.92222 13.6667 6.99999 13.6667ZM6.99999 12.3334C8.47777 12.3334 9.73611 11.8139 10.775 10.775C11.8139 9.73615 12.3333 8.47782 12.3333 7.00004C12.3333 5.52226 11.8139 4.26393 10.775 3.22504C9.73611 2.18615 8.47777 1.66671 6.99999 1.66671C5.52222 1.66671 4.26388 2.18615 3.22499 3.22504C2.18611 4.26393 1.66666 5.52226 1.66666 7.00004C1.66666 8.47782 2.18611 9.73615 3.22499 10.775C4.26388 11.8139 5.52222 12.3334 6.99999 12.3334Z" fill="#3C3C3C"/>
</svg>
